<svg width="24" height="23" viewBox="0 0 24 23" fill="none" xmlns="http://www.w3.org/2000/svg">
<g id="material-symbols:sports">
<path id="Vector" d="M11.9308 19C10.2641 19 8.84745 18.4167 7.68079 17.25C6.51412 16.0833 5.93079 14.6667 5.93079 13C5.93079 12.8167 5.93912 12.6333 5.95579 12.45C5.97245 12.2667 5.99745 12.0833 6.03079 11.9C5.94745 11.9333 5.84745 11.9583 5.73079 11.975C5.61412 11.9917 5.51412 12 5.43079 12C4.73079 12 4.13912 11.7583 3.65579 11.275C3.17245 10.7917 2.93079 10.2 2.93079 9.5C2.93079 8.8 3.16012 8.20833 3.61879 7.725C4.07745 7.24167 4.65645 7 5.35579 7C5.90579 7 6.40179 7.154 6.84379 7.462C7.28579 7.77 7.59812 8.166 7.78079 8.65C8.33079 8.15 8.96012 7.75 9.66879 7.45C10.3775 7.15 11.1315 7 11.9308 7H22.9308V11H17.9308V13C17.9308 14.6667 17.3475 16.0833 16.1808 17.25C15.0141 18.4167 13.5975 19 11.9308 19ZM5.43079 10.5C5.71412 10.5 5.95179 10.404 6.14379 10.212C6.33579 10.02 6.43145 9.78267 6.43079 9.5C6.43079 9.21667 6.33479 8.97933 6.14279 8.788C5.95079 8.59667 5.71345 8.50067 5.43079 8.5C5.14745 8.5 4.91012 8.596 4.71879 8.788C4.52745 8.98 4.43145 9.21733 4.43079 9.5C4.43079 9.78333 4.52679 10.021 4.71879 10.213C4.91079 10.405 5.14812 10.5007 5.43079 10.5ZM11.9308 15C12.4808 15 12.9518 14.8043 13.3438 14.413C13.7358 14.0217 13.9315 13.5507 13.9308 13C13.9308 12.45 13.7351 11.9793 13.3438 11.588C12.9525 11.1967 12.4815 11.0007 11.9308 11C11.3808 11 10.9101 11.196 10.5188 11.588C10.1275 11.98 9.93145 12.4507 9.93079 13C9.93079 13.55 10.1268 14.021 10.5188 14.413C10.9108 14.805 11.3815 15.0007 11.9308 15Z" fill="#F8F8F8"/>
</g>
</svg>
