<svg width="40" height="40" viewBox="0 0 40 40" fill="none" xmlns="http://www.w3.org/2000/svg">
<circle cx="20" cy="20" r="19" stroke="#292932" stroke-width="2"/>
<path fill-rule="evenodd" clip-rule="evenodd" d="M26.4998 20C27.3283 20 27.9998 20.6716 27.9998 21.5C27.9998 22.3284 27.3283 23 26.4998 23H13.4998C12.6714 23 11.9998 22.3284 11.9998 21.5C11.9998 20.6716 12.6714 20 13.4998 20L15.5581 14.9755C15.8096 12.7123 17.7226 11 19.9998 11C22.2771 11 24.1901 12.7123 24.4416 14.9755L26.4998 20Z" fill="white"/>
<path opacity="0.3" d="M22 26C22 24.8954 21.1046 24 20 24C18.8954 24 18 24.8954 18 26C18 27.1046 18.8954 28 20 28C21.1046 28 22 27.1046 22 26Z" fill="white"/>
</svg>
