<svg width="40" height="40" viewBox="0 0 40 40" fill="none" xmlns="http://www.w3.org/2000/svg">
<circle cx="20" cy="20" r="19" stroke="#292932" stroke-width="2"/>
<g clip-path="url(#clip0_0_22)">
<path fill-rule="evenodd" clip-rule="evenodd" d="M24 23.6316V20C24 18.3431 22.6569 17 21 17H14.1618V13.5263C14.1618 12.1311 15.2929 11 16.6882 11H28.4776C29.8729 11 31.0039 12.1311 31.0039 13.5263V21.1053L31.0206 25.7868C31.0216 26.0629 30.7985 26.2876 30.5224 26.2886C30.3892 26.289 30.2613 26.2363 30.1671 26.1421L27.6565 23.6316H24Z" fill="white"/>
<path opacity="0.3" fill-rule="evenodd" clip-rule="evenodd" d="M9.98505 26V21C9.98505 19.8954 10.8805 19 11.985 19H19.985C21.0896 19 21.985 19.8954 21.985 21V26C21.985 27.1046 21.0896 28 19.985 28H12.1008L10.8569 29.1905C10.6574 29.3815 10.3409 29.3745 10.15 29.175C10.0609 29.082 10.0112 28.9581 10.0112 28.8293V26.3243C9.99399 26.2187 9.98505 26.1104 9.98505 26ZM14.5 22C14.2238 22 14 22.2239 14 22.5C14 22.7761 14.2238 23 14.5 23H19.5C19.7761 23 20 22.7761 20 22.5C20 22.2239 19.7761 22 19.5 22H14.5ZM17.5 24C17.2238 24 17 24.2239 17 24.5C17 24.7761 17.2238 25 17.5 25H19.5C19.7761 25 20 24.7761 20 24.5C20 24.2239 19.7761 24 19.5 24H17.5Z" fill="white"/>
</g>
<defs>
<clipPath id="clip0_0_22">
<rect width="24" height="24" fill="white" transform="translate(8 8)"/>
</clipPath>
</defs>
</svg>
