<svg width="40" height="40" viewBox="0 0 40 40" fill="none" xmlns="http://www.w3.org/2000/svg">
<circle cx="20" cy="20" r="19" stroke="#292932" stroke-width="2"/>
<g clip-path="url(#clip0_0_9)">
<path opacity="0.3" d="M26 16H24C23.4477 16 23 15.5523 23 15C23 14.4477 23.4477 14 24 14H26V12C26 11.4477 26.4477 11 27 11C27.5523 11 28 11.4477 28 12V14H30C30.5523 14 31 14.4477 31 15C31 15.5523 30.5523 16 30 16H28V18C28 18.5523 27.5523 19 27 19C26.4477 19 26 18.5523 26 18V16ZM17 19C14.7909 19 13 17.2091 13 15C13 12.7909 14.7909 11 17 11C19.2091 11 21 12.7909 21 15C21 17.2091 19.2091 19 17 19Z" fill="white"/>
<path d="M11.2545 28.1993C9.5019 28.1992 8.05364 26.6344 8.88661 25.0924C10.3542 22.3756 13.4285 21 16.9833 21C20.632 21 23.7846 22.3318 25.208 25.1371C25.9895 26.6774 24.5423 28.2 22.8151 28.1999C19.6965 28.1997 15.6184 28.1994 11.2545 28.1993Z" fill="white"/>
</g>
<defs>
<clipPath id="clip0_0_9">
<rect width="24" height="24" fill="white" transform="translate(8 8)"/>
</clipPath>
</defs>
</svg>
